<?xml version="1.0" encoding="utf-8"?>
<!-- Generator: Adobe Illustrator 27.6.1, SVG Export Plug-In . SVG Version: 6.00 Build 0)  -->
<svg version="1.1" id="Layer_1" xmlns="http://www.w3.org/2000/svg" xmlns:xlink="http://www.w3.org/1999/xlink" x="0px" y="0px"
	 viewBox="0 0 38 38" style="enable-background:new 0 0 38 38;" xml:space="preserve">
<style type="text/css">
	.st0{clip-path:url(#SVGID_00000183238464622436899080000016056118895524668336_);}
	.st1{fill:#FFDF81;}
	.st2{fill:#FFF8E1;}
	.st3{fill:#FFB100;}
</style>
<g>
	<defs>
		<rect id="SVGID_1_" y="0" width="38" height="38"/>
	</defs>
	<clipPath id="SVGID_00000062895096462985771120000009962746538999231882_">
		<use xlink:href="#SVGID_1_"  style="overflow:visible;"/>
	</clipPath>
	<g style="clip-path:url(#SVGID_00000062895096462985771120000009962746538999231882_);">
		<path class="st1" d="M18.9,36.3c9.6,0,17.3-7.8,17.3-17.3c0-9.6-7.8-17.3-17.3-17.3C9.3,1.6,1.6,9.3,1.6,18.9
			C1.6,28.5,9.3,36.3,18.9,36.3z"/>
		<path class="st2" d="M4.7,22.1c0-9.6,7.9-17.3,17.5-17.3c3.9,0,7.7,1.4,10.6,3.6c-3.2-4.1-8.2-6.8-13.7-6.8
			C9.5,1.6,1.6,9.3,1.6,18.9c0,5.7,2.7,10.6,6.8,13.7C6.1,29.8,4.7,26.2,4.7,22.1z"/>
		<path class="st3" d="M18.9,0C8.5,0,0,8.5,0,18.9c0,10.4,8.5,18.9,18.9,18.9c10.4,0,18.9-8.5,18.9-18.9C37.8,8.5,29.5,0,18.9,0z
			 M18.9,34.8c-8.7,0-15.8-7.1-15.8-15.8S10.2,3.2,18.9,3.2s15.8,7.1,15.8,15.8S27.8,34.8,18.9,34.8z"/>
		<path class="st3" d="M25.9,22.7c-0.5-0.3-0.9-0.3-1.4-0.2l-3,1.1l-3-1.4c-0.3-0.2-0.8-0.2-1.1,0l-2.8,0.9l-1.3-2v-8.8h9.6
			l-1.3,5.4l-2.7-0.5l0.2-0.8c0.2-0.8-0.3-1.7-1.1-1.9c-0.6-0.3-1.6,0.2-1.7,0.9l-0.6,2.4c-0.2,0.5,0,0.8,0.2,1.3
			c0.2,0.5,0.6,0.6,0.9,0.6l5.7,1.1c0.8,0.2,1.6-0.3,1.9-1.1l2.2-8.7c0.2-0.5,0-0.9-0.3-1.4C25.9,9.3,25.4,9,24.9,9H11.8
			c-0.9,0-1.6,0.6-1.6,1.6V27c0,0.9,0.6,1.6,1.6,1.6h13.2c0.9,0,1.6-0.6,1.6-1.6v-3.2C26.5,23.5,26.3,23,25.9,22.7z"/>
	</g>
</g>
</svg>
