<?xml version="1.0" encoding="UTF-8" standalone="no"?><svg width="24" height="24" viewBox="0 0 24 24" fill="none" xmlns="http://www.w3.org/2000/svg">
<path d="M11.2104 23.9982C16.8494 23.9982 21.4207 19.6701 21.4207 14.3311C21.4207 8.99216 16.8494 4.66406 11.2104 4.66406C5.57133 4.66406 1 8.99216 1 14.3311C1 19.6701 5.57133 23.9982 11.2104 23.9982Z" fill="#FFC950"/>
<mask id="mask0_10465_16150" style="mask-type:luminance" maskUnits="userSpaceOnUse" x="1" y="4" width="21" height="20">
<path d="M11.2104 23.9982C16.8494 23.9982 21.4207 19.6701 21.4207 14.3311C21.4207 8.99216 16.8494 4.66406 11.2104 4.66406C5.57133 4.66406 1 8.99216 1 14.3311C1 19.6701 5.57133 23.9982 11.2104 23.9982Z" fill="white"/>
</mask>
<g mask="url(#mask0_10465_16150)">
<path d="M10.6115 14.875C10.6115 14.875 10.6733 19.5147 5.91089 24.4682C5.9603 24.4928 10.3521 26.5973 10.3521 26.5973C14.7129 21.1577 14.6388 15.1827 14.6388 15.1827L10.6177 14.875H10.6115Z" fill="#FFC950"/>
<path d="M10.5125 15.8879C12.4706 17.6355 14.4595 17.1001 14.4595 17.1001L14.6263 15.1741L10.6114 14.7188L10.5063 15.8879H10.5125Z" fill="#D1D3D4"/>
<path d="M10.494 26.8439C10.4075 26.887 10.3025 26.8932 10.216 26.8439C10.216 26.8439 5.85517 24.7518 5.78105 24.7148C5.70075 24.6779 5.63898 24.6041 5.62045 24.5179C5.60192 24.4318 5.63281 24.3395 5.69458 24.278C10.3149 19.4783 10.321 14.9247 10.321 14.8816C10.321 14.8016 10.3519 14.7278 10.4137 14.6724C10.4755 14.617 10.5558 14.5924 10.6422 14.5986L14.6634 14.9063C14.8178 14.9186 14.9352 15.0355 14.9352 15.1832C14.9352 15.2447 14.9599 21.3181 10.5928 26.7763C10.5681 26.807 10.5372 26.8316 10.5002 26.8501L10.494 26.8439ZM6.38638 24.3826C7.25115 24.801 9.49335 25.8717 10.2593 26.2409C13.8604 21.6258 14.2804 16.6108 14.3298 15.4354L10.8955 15.177C10.8275 16.2846 10.2963 20.1736 6.38638 24.3826Z" fill="#14131A"/>
<path d="M14.5707 17.2874C14.5707 17.2874 14.5398 17.2997 14.5213 17.3058C14.4348 17.3304 12.3841 17.8473 10.3581 16.0444C10.2716 15.9644 10.2654 15.829 10.3457 15.749C10.4322 15.6628 10.5681 15.6628 10.6608 15.7428C12.4953 17.3797 14.3236 16.9305 14.3978 16.9058C14.5151 16.8751 14.6387 16.9428 14.6695 17.0535C14.7004 17.1458 14.651 17.2443 14.5645 17.2935L14.5707 17.2874Z" fill="#14131A"/>
</g>
<path d="M15.7258 5.018C16.6153 1.76282 15.4293 -0.101673 14.0889 0.347529C12.6744 0.815191 12.2544 6.65481 12.2544 6.65481L10.4878 3.67654C9.01157 1.19055 7.35617 3.3258 7.30058 5.75026C7.24498 8.16856 8.75214 11.3745 8.75214 11.3745C8.75214 11.3745 4.37274 14.9866 4.92866 16.2603C5.48458 17.5341 8.56683 18.0264 9.75279 14.4758L9.85162 14.4205C9.85162 14.4205 12.4027 16.3096 14.8055 15.0973C15.6085 14.6912 16.0717 14.0882 16.3312 13.4913" fill="#F1F2F2"/>
<path d="M15.7255 5.01477C15.7934 4.94093 20.5496 1.21809 21.4885 2.49185C22.3224 3.61794 20.6114 6.12854 18.3321 7.00233C18.3321 7.00233 21.612 12.4789 16.4852 13.4696L16.3123 13.4881" fill="#F1F2F2"/>
<path d="M19.3021 10.4919C19.3021 10.4919 17.3193 11.6734 16.6152 11.9195L16.5534 13.5686L18.6844 12.5779L19.3824 11.1688L19.3021 10.4858V10.4919ZM20.8216 2.40629C20.8216 2.40629 20.7104 4.98459 17.5232 7.03369L19.4318 6.47372L21.8037 3.71083L21.5258 2.16016L20.8278 2.40629H20.8216ZM8.06023 3.37239C8.06023 3.37239 9.70327 9.85812 9.61062 10.5412C9.51797 11.218 8.78292 11.5503 8.78292 11.5503C8.78292 11.5503 7.74521 9.05202 7.50431 7.35982C7.25724 5.66762 7.33136 3.99388 8.0664 3.37854L8.06023 3.37239ZM16.4484 11.7657C16.4484 11.7657 15.176 13.7717 13.1994 13.7348C11.2228 13.6979 10.0739 13.0518 9.40061 13.661C8.72115 14.2701 6.6519 16.3808 5.96627 16.1162C5.28064 15.8516 4.95944 15.6116 4.95944 15.6116C4.95944 15.6116 4.71854 16.5715 5.44124 16.9715C6.16393 17.3715 7.18929 17.3469 7.83168 17.0207C8.47408 16.6946 9.59827 15.2485 9.72798 14.8301C9.85769 14.4178 10.5186 14.8178 10.5186 14.8178C10.5186 14.8178 12.9523 15.8147 13.4835 15.5993C14.0147 15.3839 16.2199 14.7193 16.4237 13.2487C16.6214 11.7718 16.4546 11.7657 16.4546 11.7657H16.4484ZM12.3717 5.50148C12.3717 5.50148 13.7368 6.8737 14.5706 6.64602L12.8597 7.34136L12.6991 7.40905L12.0875 6.37527L12.3655 5.49533L12.3717 5.50148Z" fill="#D9D9E2"/>
<path d="M8.08473 17.1328C7.57205 17.4035 7.10261 17.4712 6.80612 17.4835C5.84253 17.5204 4.95924 17.0651 4.65039 16.3636C4.07595 15.0529 7.36821 12.1546 8.3874 11.2931C8.06002 10.5547 6.94201 7.88413 6.9976 5.74273C7.04084 4.02591 7.81295 2.55524 8.80125 2.32141C9.28922 2.20449 10.0181 2.32141 10.7408 3.53979L12.0379 5.72427C12.2294 3.92746 12.7544 0.493833 13.9898 0.0815518C14.5272 -0.0968982 15.0522 0.0200174 15.4784 0.407685C16.2197 1.08456 16.7632 2.86906 15.8429 5.65658C15.7935 5.80426 15.6267 5.88425 15.4723 5.84118C15.3178 5.79811 15.2314 5.63812 15.2808 5.49043C16.0652 3.10905 15.7379 1.423 15.0708 0.813812C14.8113 0.573828 14.5148 0.50614 14.1936 0.616902C13.3536 0.893807 12.7421 4.25359 12.563 6.59805L12.9645 7.27493C13.0448 7.41031 12.9953 7.58261 12.8533 7.65645C12.7112 7.73029 12.5321 7.68722 12.4518 7.55184L12.007 6.80112L10.2405 3.82285C9.99956 3.41057 9.50541 2.746 8.96184 2.87522C8.26386 3.04136 7.64 4.36435 7.60293 5.76734C7.54734 8.0995 9.01744 11.2378 9.02979 11.2685C9.08538 11.3793 9.0545 11.5147 8.95567 11.5947C7.20144 13.0407 4.88511 15.4098 5.21249 16.1605C5.4225 16.6405 6.0896 16.9666 6.79377 16.9359C7.35586 16.9112 8.73948 16.6159 9.4807 14.3945C9.53012 14.2468 9.69689 14.1668 9.85131 14.2099C10.0057 14.2591 10.0922 14.4129 10.0428 14.5606C9.55482 16.0313 8.78889 16.7697 8.09708 17.1389L8.08473 17.1328Z" fill="#14131A"/>
<path d="M19.0861 6.96865C18.5796 7.23941 18.0298 7.43632 17.4554 7.52862C17.2948 7.55323 17.1404 7.45478 17.1156 7.30094C17.0909 7.1471 17.1959 7.00557 17.3565 6.97481C19.1417 6.6856 20.6673 5.24569 21.2047 4.03346C21.4642 3.45504 21.4765 2.96276 21.248 2.65509C21.2109 2.60586 21.1368 2.53202 20.9577 2.51356C19.7099 2.38433 16.3991 4.80879 15.9359 5.21492C15.8309 5.33184 15.6517 5.33799 15.5282 5.23338C15.4047 5.12877 15.3985 4.94417 15.5097 4.82725C15.5344 4.79649 19.2096 1.85514 20.9515 1.94744C21.3839 1.97205 21.6186 2.16896 21.7359 2.32895C22.0818 2.80277 22.088 3.4858 21.7545 4.24883C21.3283 5.20877 20.34 6.30408 19.0922 6.96865H19.0861Z" fill="#14131A"/>
<path d="M18.0172 13.2564C17.6033 13.4779 17.1154 13.6441 16.5533 13.7487C16.3927 13.7794 16.2383 13.681 16.2012 13.5333C16.1703 13.3795 16.2691 13.2318 16.4297 13.201C17.6404 12.9672 18.4434 12.4503 18.8202 11.6688C19.6849 9.87199 18.1098 7.20755 18.0913 7.18293C18.011 7.04756 18.0604 6.87526 18.2025 6.80142C18.3446 6.72758 18.5237 6.77065 18.604 6.90603C18.6781 7.02294 20.3397 9.84738 19.3576 11.9026C19.0796 12.4749 18.6287 12.9303 18.011 13.2625L18.0172 13.2564Z" fill="#14131A"/>
<path d="M15.0157 15.3033C15.0157 15.3033 14.9663 15.3279 14.9415 15.3402C12.3967 16.6263 9.77769 14.7187 9.6665 14.6387C9.53679 14.5464 9.51826 14.3679 9.61709 14.2449C9.71592 14.1218 9.90122 14.1033 10.0309 14.1956C10.0556 14.2141 12.4584 15.9555 14.6636 14.8418C16.844 13.7464 16.2696 11.2235 16.2387 11.1189C16.2016 10.9712 16.3005 10.8174 16.4611 10.7866C16.6217 10.7497 16.7761 10.8482 16.8131 10.9958C16.8193 11.0266 17.4988 13.9741 15.0157 15.2971V15.3033ZM15.899 6.55921C15.899 6.55921 15.8557 6.57767 15.831 6.58383C15.8063 6.58998 13.3417 7.25455 11.1057 8.49755C10.9636 8.57754 10.7907 8.52832 10.7042 8.39909C10.6239 8.26372 10.6672 8.09142 10.8092 8.01758C13.1132 6.73151 15.5716 6.07309 15.6704 6.04232C15.8248 5.99925 15.9916 6.0854 16.0348 6.23923C16.0719 6.36846 16.0101 6.49768 15.8928 6.55921H15.899Z" fill="#14131A"/>
</svg>
